<svg id="Component_205_1" data-name="Component 205 – 1" xmlns="http://www.w3.org/2000/svg" xmlns:xlink="http://www.w3.org/1999/xlink" width="64" height="25" viewBox="0 0 64 25">
  <defs>
    <clipPath id="clip-path">
      <rect id="Rectangle_89" data-name="Rectangle 89" width="14" height="25" transform="translate(-455 -1288)" fill="#fff" stroke="#707070" stroke-width="1"/>
    </clipPath>
  </defs>
  <g id="Mask_Group_6" data-name="Mask Group 6" transform="translate(455 1288)" clip-path="url(#clip-path)">
    <path id="paypal" d="M4.062,10.79c-.128.7-.635,3.964-.784,4.887-.011.066-.036.091-.109.091H.449a.443.443,0,0,1-.441-.507L2.144,1.7a.741.741,0,0,1,.729-.616c5.554,0,6.021-.135,7.439.416,2.192.85,2.392,2.9,1.6,5.116C11.133,8.9,9.273,9.879,6.808,9.908c-1.583.026-2.534-.255-2.746.882Zm8.96-5.248c-.066-.047-.091-.066-.109.047a8.535,8.535,0,0,1-.321,1.225C11.137,10.966,7.1,10.6,5.135,10.6a.367.367,0,0,0-.4.343c-.824,5.12-.988,6.188-.988,6.188a.388.388,0,0,0,.387.47H6.451a.654.654,0,0,0,.635-.543c.026-.2-.04.222.525-3.329.168-.8.521-.718,1.068-.718,2.589,0,4.609-1.05,5.211-4.1.237-1.269.168-2.6-.868-3.377Z" transform="translate(-455.003 -1284.837)" fill="#222d65"/>
  </g>
  <text id="PayPal-2" data-name="PayPal" transform="translate(19 17)" fill="#37549a" font-size="12" font-family="FuturaStd-Bold, Futura Std" font-weight="700" letter-spacing="0.015em"><tspan x="0" y="0">Pay</tspan><tspan y="0" fill="#179bd7">Pal</tspan></text>
</svg>
