<svg xmlns="http://www.w3.org/2000/svg" xmlns:xlink="http://www.w3.org/1999/xlink" width="16" height="16" viewBox="0 0 16 16">
  <defs>
    <clipPath id="clip-path">
      <circle id="Ellipse_33" data-name="Ellipse 33" cx="8" cy="8" r="8" transform="translate(150 268)" fill="#14be82"/>
    </clipPath>
  </defs>
  <g id="Mask_Group_1" data-name="Mask Group 1" transform="translate(-150 -268)" clip-path="url(#clip-path)">
    <path id="check-circle" d="M16.258,8.258a8,8,0,1,1-8-8A8,8,0,0,1,16.258,8.258ZM7.333,12.494l5.935-5.935a.516.516,0,0,0,0-.73l-.73-.73a.516.516,0,0,0-.73,0L6.968,9.939l-2.26-2.26a.516.516,0,0,0-.73,0l-.73.73a.516.516,0,0,0,0,.73L6.6,12.494a.516.516,0,0,0,.73,0Z" transform="translate(149.742 267.742)" fill="#14be82"/>
  </g>
</svg>
