<svg xmlns="http://www.w3.org/2000/svg" width="14.061" height="17.443" viewBox="0 0 14.061 17.443">
  <path id="user" d="M9.843,10.357c-.9,0-1.334.545-2.812.545s-1.908-.545-2.812-.545A4.411,4.411,0,0,0,0,14.936v.872a1.575,1.575,0,0,0,1.507,1.635H12.555a1.575,1.575,0,0,0,1.507-1.635v-.872A4.411,4.411,0,0,0,9.843,10.357Zm2.712,5.451H1.507v-.872a2.84,2.84,0,0,1,2.712-2.944,11.434,11.434,0,0,0,2.812.545,11.325,11.325,0,0,0,2.812-.545,2.84,2.84,0,0,1,2.712,2.944Zm-5.524-6a4.726,4.726,0,0,0,4.52-4.906A4.726,4.726,0,0,0,7.031,0a4.726,4.726,0,0,0-4.52,4.906A4.726,4.726,0,0,0,7.031,9.812Zm0-8.176a3.155,3.155,0,0,1,3.013,3.271A3.155,3.155,0,0,1,7.031,8.176,3.155,3.155,0,0,1,4.018,4.906,3.155,3.155,0,0,1,7.031,1.635Z" fill="#00174f"/>
</svg>
