<svg xmlns="http://www.w3.org/2000/svg" width="17" height="17.286" viewBox="0 0 17 17.286">
  <path id="instagram" d="M8.427,36.036a4.433,4.433,0,1,0,4.358,4.432A4.388,4.388,0,0,0,8.427,36.036Zm0,7.313a2.882,2.882,0,1,1,2.833-2.881,2.863,2.863,0,0,1-2.833,2.881Zm5.552-7.494a1.017,1.017,0,1,1-1.016-1.034A1.023,1.023,0,0,1,13.979,35.855ZM16.865,36.9a5.164,5.164,0,0,0-1.373-3.622,5.016,5.016,0,0,0-3.561-1.4c-1.4-.081-5.609-.081-7.012,0a5.009,5.009,0,0,0-3.561,1.392A5.181,5.181,0,0,0-.015,36.9c-.08,1.427-.08,5.7,0,7.132a5.164,5.164,0,0,0,1.373,3.622,5.022,5.022,0,0,0,3.561,1.4c1.4.081,5.609.081,7.012,0a4.983,4.983,0,0,0,3.561-1.4,5.2,5.2,0,0,0,1.373-3.622C16.945,42.6,16.945,38.331,16.865,36.9Zm-1.813,8.659a2.893,2.893,0,0,1-1.616,1.643c-1.119.451-3.774.347-5.01.347s-3.895.1-5.01-.347A2.893,2.893,0,0,1,1.8,45.563c-.444-1.138-.341-3.838-.341-5.1s-.1-3.961.341-5.1a2.893,2.893,0,0,1,1.616-1.643c1.119-.451,3.774-.347,5.01-.347s3.895-.1,5.01.347a2.893,2.893,0,0,1,1.616,1.643c.444,1.138.341,3.838.341,5.1S15.5,44.429,15.052,45.563Z" transform="translate(0.074 -31.825)" fill="#fff"/>
</svg>
