<svg xmlns="http://www.w3.org/2000/svg" width="16.428" height="16.368" viewBox="0 0 16.428 16.368">
  <path id="pinterest" d="M16.429,16.184A8.219,8.219,0,0,1,5.783,24,9.184,9.184,0,0,0,6.8,21.856c.1-.383.51-1.947.51-1.947a2.2,2.2,0,0,0,1.881.94c2.478,0,4.263-2.27,4.263-5.092a4.813,4.813,0,0,0-5.064-4.725c-3.544,0-5.429,2.369-5.429,4.953a3.669,3.669,0,0,0,1.666,3.171c.156.073.238.04.275-.109.026-.112.166-.67.229-.927a.244.244,0,0,0-.056-.234,3.215,3.215,0,0,1-.606-1.868,3.548,3.548,0,0,1,3.71-3.551,3.237,3.237,0,0,1,3.431,3.33c0,2.214-1.123,3.749-2.584,3.749a1.188,1.188,0,0,1-1.216-1.478,16.394,16.394,0,0,0,.679-2.726,1.029,1.029,0,0,0-1.04-1.152c-.825,0-1.487.848-1.487,1.987a2.94,2.94,0,0,0,.245,1.214S5.4,20.817,5.25,21.457a7.892,7.892,0,0,0-.03,2.35,8.191,8.191,0,1,1,11.209-7.623Z" transform="translate(0 -8)" fill="#fff"/>
</svg>
