<svg xmlns="http://www.w3.org/2000/svg" width="16.693" height="14.367" viewBox="0 0 16.693 14.367">
  <path id="twitter" d="M14.978,51.663c.011.157.011.314.011.471,0,4.793-3.443,10.315-9.735,10.315A9.278,9.278,0,0,1,0,60.822a6.683,6.683,0,0,0,.826.045,6.611,6.611,0,0,0,4.248-1.549,3.459,3.459,0,0,1-3.2-2.514,4.078,4.078,0,0,0,.646.056,3.427,3.427,0,0,0,.9-.123A3.58,3.58,0,0,1,.678,53.178v-.045a3.3,3.3,0,0,0,1.547.46A3.684,3.684,0,0,1,.7,50.574a3.763,3.763,0,0,1,.466-1.83A9.556,9.556,0,0,0,8.22,52.538a4.327,4.327,0,0,1-.085-.831,3.526,3.526,0,0,1,3.421-3.625,3.327,3.327,0,0,1,2.5,1.145,6.51,6.51,0,0,0,2.172-.876,3.586,3.586,0,0,1-1.5,2,6.558,6.558,0,0,0,1.97-.561,7.61,7.61,0,0,1-1.716,1.874Z" transform="translate(0 -48.082)" fill="#fff"/>
</svg>
