<svg xmlns="http://www.w3.org/2000/svg" width="18.428" height="13" viewBox="0 0 18.428 13">
  <path id="youtube" d="M32.977,66.034a2.319,2.319,0,0,0-1.629-1.645,54.546,54.546,0,0,0-7.2-.389,54.546,54.546,0,0,0-7.2.389,2.319,2.319,0,0,0-1.629,1.645,26.241,26.241,0,0,0,0,8.958,2.285,2.285,0,0,0,1.629,1.619,54.546,54.546,0,0,0,7.2.389,54.547,54.547,0,0,0,7.2-.389,2.285,2.285,0,0,0,1.629-1.619,26.241,26.241,0,0,0,0-8.958ZM22.263,73.262v-5.5l4.817,2.749Z" transform="translate(-14.934 -64)" fill="#fff"/>
</svg>
