<svg xmlns="http://www.w3.org/2000/svg" width="14.773" height="15.129" viewBox="0 0 14.773 15.129">
  <path id="search" d="M14.572,13.08,11.7,10.134a.684.684,0,0,0-.491-.207h-.47A6.209,6.209,0,0,0,12,6.146,6.074,6.074,0,0,0,6,0,6.074,6.074,0,0,0,0,6.146a6.074,6.074,0,0,0,6,6.146,5.885,5.885,0,0,0,3.694-1.3v.482a.717.717,0,0,0,.2.5l2.877,2.946a.678.678,0,0,0,.978,0l.817-.836A.725.725,0,0,0,14.572,13.08ZM6,9.927A3.736,3.736,0,0,1,2.308,6.146,3.736,3.736,0,0,1,6,2.364,3.736,3.736,0,0,1,9.7,6.146,3.736,3.736,0,0,1,6,9.927Z" fill="#00174f"/>
</svg>
